<mxfile host="app.diagrams.net" modified="2022-07-18T19:42:38.696Z" agent="5.0 (X11)" etag="w569-JTxfqj17wK-wSR4" version="20.1.1" type="github">
  <diagram id="2mPX8l47d6hNkeJ0RFZP" name="Page-1">
    <mxGraphModel dx="1965" dy="1799" grid="1" gridSize="10" guides="1" tooltips="1" connect="1" arrows="1" fold="1" page="1" pageScale="1" pageWidth="827" pageHeight="1169" math="0" shadow="0">
      <root>
        <mxCell id="0" />
        <mxCell id="1" parent="0" />
        <mxCell id="HSVkpMsHJG1qh-er9L2Z-1" value="Forgero Registry" style="swimlane;fontStyle=0;childLayout=stackLayout;horizontal=1;startSize=30;horizontalStack=0;resizeParent=1;resizeParentMax=0;resizeLast=0;collapsible=1;marginBottom=0;" vertex="1" parent="1">
          <mxGeometry x="340" y="320" width="140" height="60" as="geometry" />
        </mxCell>
        <mxCell id="HSVkpMsHJG1qh-er9L2Z-4" value="Parts" style="text;strokeColor=none;fillColor=none;align=left;verticalAlign=middle;spacingLeft=4;spacingRight=4;overflow=hidden;points=[[0,0.5],[1,0.5]];portConstraint=eastwest;rotatable=0;" vertex="1" parent="HSVkpMsHJG1qh-er9L2Z-1">
          <mxGeometry y="30" width="140" height="30" as="geometry" />
        </mxCell>
        <mxCell id="HSVkpMsHJG1qh-er9L2Z-66" style="edgeStyle=orthogonalEdgeStyle;rounded=0;orthogonalLoop=1;jettySize=auto;html=1;" edge="1" parent="1" source="HSVkpMsHJG1qh-er9L2Z-6" target="HSVkpMsHJG1qh-er9L2Z-31">
          <mxGeometry relative="1" as="geometry">
            <Array as="points">
              <mxPoint x="-50" y="755" />
              <mxPoint x="-50" y="580" />
            </Array>
          </mxGeometry>
        </mxCell>
        <mxCell id="HSVkpMsHJG1qh-er9L2Z-6" value="Schematics" style="swimlane;fontStyle=0;childLayout=stackLayout;horizontal=1;startSize=30;horizontalStack=0;resizeParent=1;resizeParentMax=0;resizeLast=0;collapsible=1;marginBottom=0;" vertex="1" parent="1">
          <mxGeometry x="-370" y="680" width="140" height="150" as="geometry" />
        </mxCell>
        <mxCell id="HSVkpMsHJG1qh-er9L2Z-8" value="Construct" style="text;strokeColor=none;fillColor=none;align=left;verticalAlign=middle;spacingLeft=4;spacingRight=4;overflow=hidden;points=[[0,0.5],[1,0.5]];portConstraint=eastwest;rotatable=0;" vertex="1" parent="HSVkpMsHJG1qh-er9L2Z-6">
          <mxGeometry y="30" width="140" height="30" as="geometry" />
        </mxCell>
        <mxCell id="HSVkpMsHJG1qh-er9L2Z-9" value="Item" style="text;strokeColor=none;fillColor=none;align=left;verticalAlign=middle;spacingLeft=4;spacingRight=4;overflow=hidden;points=[[0,0.5],[1,0.5]];portConstraint=eastwest;rotatable=0;" vertex="1" parent="HSVkpMsHJG1qh-er9L2Z-6">
          <mxGeometry y="60" width="140" height="30" as="geometry" />
        </mxCell>
        <mxCell id="HSVkpMsHJG1qh-er9L2Z-7" value="Ingredient" style="text;strokeColor=none;fillColor=none;align=left;verticalAlign=middle;spacingLeft=4;spacingRight=4;overflow=hidden;points=[[0,0.5],[1,0.5]];portConstraint=eastwest;rotatable=0;" vertex="1" parent="HSVkpMsHJG1qh-er9L2Z-6">
          <mxGeometry y="90" width="140" height="30" as="geometry" />
        </mxCell>
        <mxCell id="HSVkpMsHJG1qh-er9L2Z-16" value="PropertyContainer" style="text;strokeColor=none;fillColor=none;align=left;verticalAlign=middle;spacingLeft=4;spacingRight=4;overflow=hidden;points=[[0,0.5],[1,0.5]];portConstraint=eastwest;rotatable=0;" vertex="1" parent="HSVkpMsHJG1qh-er9L2Z-6">
          <mxGeometry y="120" width="140" height="30" as="geometry" />
        </mxCell>
        <mxCell id="HSVkpMsHJG1qh-er9L2Z-62" style="edgeStyle=orthogonalEdgeStyle;rounded=0;orthogonalLoop=1;jettySize=auto;html=1;" edge="1" parent="1" source="HSVkpMsHJG1qh-er9L2Z-10" target="HSVkpMsHJG1qh-er9L2Z-18">
          <mxGeometry relative="1" as="geometry">
            <Array as="points">
              <mxPoint x="-120" y="400" />
              <mxPoint x="-120" y="270" />
            </Array>
          </mxGeometry>
        </mxCell>
        <mxCell id="HSVkpMsHJG1qh-er9L2Z-63" style="edgeStyle=orthogonalEdgeStyle;rounded=0;orthogonalLoop=1;jettySize=auto;html=1;" edge="1" parent="1" source="HSVkpMsHJG1qh-er9L2Z-10" target="HSVkpMsHJG1qh-er9L2Z-27">
          <mxGeometry relative="1" as="geometry" />
        </mxCell>
        <mxCell id="HSVkpMsHJG1qh-er9L2Z-10" value="Part" style="swimlane;fontStyle=0;childLayout=stackLayout;horizontal=1;startSize=30;horizontalStack=0;resizeParent=1;resizeParentMax=0;resizeLast=0;collapsible=1;marginBottom=0;" vertex="1" parent="1">
          <mxGeometry x="-370" y="370" width="140" height="120" as="geometry" />
        </mxCell>
        <mxCell id="HSVkpMsHJG1qh-er9L2Z-11" value="Ingredient" style="text;strokeColor=none;fillColor=none;align=left;verticalAlign=middle;spacingLeft=4;spacingRight=4;overflow=hidden;points=[[0,0.5],[1,0.5]];portConstraint=eastwest;rotatable=0;" vertex="1" parent="HSVkpMsHJG1qh-er9L2Z-10">
          <mxGeometry y="30" width="140" height="30" as="geometry" />
        </mxCell>
        <mxCell id="HSVkpMsHJG1qh-er9L2Z-13" value="Item" style="text;strokeColor=none;fillColor=none;align=left;verticalAlign=middle;spacingLeft=4;spacingRight=4;overflow=hidden;points=[[0,0.5],[1,0.5]];portConstraint=eastwest;rotatable=0;" vertex="1" parent="HSVkpMsHJG1qh-er9L2Z-10">
          <mxGeometry y="60" width="140" height="30" as="geometry" />
        </mxCell>
        <mxCell id="HSVkpMsHJG1qh-er9L2Z-17" value="PropertyContainer" style="text;strokeColor=none;fillColor=none;align=left;verticalAlign=middle;spacingLeft=4;spacingRight=4;overflow=hidden;points=[[0,0.5],[1,0.5]];portConstraint=eastwest;rotatable=0;" vertex="1" parent="HSVkpMsHJG1qh-er9L2Z-10">
          <mxGeometry y="90" width="140" height="30" as="geometry" />
        </mxCell>
        <mxCell id="HSVkpMsHJG1qh-er9L2Z-69" style="edgeStyle=orthogonalEdgeStyle;rounded=0;orthogonalLoop=1;jettySize=auto;html=1;" edge="1" parent="1" source="HSVkpMsHJG1qh-er9L2Z-18" target="HSVkpMsHJG1qh-er9L2Z-1">
          <mxGeometry relative="1" as="geometry" />
        </mxCell>
        <mxCell id="HSVkpMsHJG1qh-er9L2Z-18" value="Composite" style="swimlane;fontStyle=0;childLayout=stackLayout;horizontal=1;startSize=30;horizontalStack=0;resizeParent=1;resizeParentMax=0;resizeLast=0;collapsible=1;marginBottom=0;" vertex="1" parent="1">
          <mxGeometry x="60" y="210" width="140" height="120" as="geometry" />
        </mxCell>
        <mxCell id="HSVkpMsHJG1qh-er9L2Z-20" value="Item" style="text;strokeColor=none;fillColor=none;align=left;verticalAlign=middle;spacingLeft=4;spacingRight=4;overflow=hidden;points=[[0,0.5],[1,0.5]];portConstraint=eastwest;rotatable=0;" vertex="1" parent="HSVkpMsHJG1qh-er9L2Z-18">
          <mxGeometry y="30" width="140" height="30" as="geometry" />
        </mxCell>
        <mxCell id="HSVkpMsHJG1qh-er9L2Z-21" value="PropertyContainer" style="text;strokeColor=none;fillColor=none;align=left;verticalAlign=middle;spacingLeft=4;spacingRight=4;overflow=hidden;points=[[0,0.5],[1,0.5]];portConstraint=eastwest;rotatable=0;" vertex="1" parent="HSVkpMsHJG1qh-er9L2Z-18">
          <mxGeometry y="60" width="140" height="30" as="geometry" />
        </mxCell>
        <mxCell id="HSVkpMsHJG1qh-er9L2Z-22" value="Construct" style="text;strokeColor=none;fillColor=none;align=left;verticalAlign=middle;spacingLeft=4;spacingRight=4;overflow=hidden;points=[[0,0.5],[1,0.5]];portConstraint=eastwest;rotatable=0;" vertex="1" parent="HSVkpMsHJG1qh-er9L2Z-18">
          <mxGeometry y="90" width="140" height="30" as="geometry" />
        </mxCell>
        <mxCell id="HSVkpMsHJG1qh-er9L2Z-67" style="edgeStyle=orthogonalEdgeStyle;rounded=0;orthogonalLoop=1;jettySize=auto;html=1;" edge="1" parent="1" source="HSVkpMsHJG1qh-er9L2Z-23" target="HSVkpMsHJG1qh-er9L2Z-31">
          <mxGeometry relative="1" as="geometry">
            <Array as="points">
              <mxPoint x="-50" y="920" />
              <mxPoint x="-50" y="580" />
            </Array>
          </mxGeometry>
        </mxCell>
        <mxCell id="HSVkpMsHJG1qh-er9L2Z-23" value="Material" style="swimlane;fontStyle=0;childLayout=stackLayout;horizontal=1;startSize=30;horizontalStack=0;resizeParent=1;resizeParentMax=0;resizeLast=0;collapsible=1;marginBottom=0;" vertex="1" parent="1">
          <mxGeometry x="-370" y="860" width="140" height="120" as="geometry" />
        </mxCell>
        <mxCell id="HSVkpMsHJG1qh-er9L2Z-24" value="Item" style="text;strokeColor=none;fillColor=none;align=left;verticalAlign=middle;spacingLeft=4;spacingRight=4;overflow=hidden;points=[[0,0.5],[1,0.5]];portConstraint=eastwest;rotatable=0;" vertex="1" parent="HSVkpMsHJG1qh-er9L2Z-23">
          <mxGeometry y="30" width="140" height="30" as="geometry" />
        </mxCell>
        <mxCell id="HSVkpMsHJG1qh-er9L2Z-25" value="PropertyContainer" style="text;strokeColor=none;fillColor=none;align=left;verticalAlign=middle;spacingLeft=4;spacingRight=4;overflow=hidden;points=[[0,0.5],[1,0.5]];portConstraint=eastwest;rotatable=0;" vertex="1" parent="HSVkpMsHJG1qh-er9L2Z-23">
          <mxGeometry y="60" width="140" height="30" as="geometry" />
        </mxCell>
        <mxCell id="HSVkpMsHJG1qh-er9L2Z-26" value="Ingredient" style="text;strokeColor=none;fillColor=none;align=left;verticalAlign=middle;spacingLeft=4;spacingRight=4;overflow=hidden;points=[[0,0.5],[1,0.5]];portConstraint=eastwest;rotatable=0;" vertex="1" parent="HSVkpMsHJG1qh-er9L2Z-23">
          <mxGeometry y="90" width="140" height="30" as="geometry" />
        </mxCell>
        <mxCell id="HSVkpMsHJG1qh-er9L2Z-70" style="edgeStyle=orthogonalEdgeStyle;rounded=0;orthogonalLoop=1;jettySize=auto;html=1;" edge="1" parent="1" source="HSVkpMsHJG1qh-er9L2Z-27" target="HSVkpMsHJG1qh-er9L2Z-1">
          <mxGeometry relative="1" as="geometry" />
        </mxCell>
        <mxCell id="HSVkpMsHJG1qh-er9L2Z-27" value="Upgrade" style="swimlane;fontStyle=0;childLayout=stackLayout;horizontal=1;startSize=30;horizontalStack=0;resizeParent=1;resizeParentMax=0;resizeLast=0;collapsible=1;marginBottom=0;" vertex="1" parent="1">
          <mxGeometry x="60" y="370" width="140" height="120" as="geometry" />
        </mxCell>
        <mxCell id="HSVkpMsHJG1qh-er9L2Z-28" value="Ingredient" style="text;strokeColor=none;fillColor=none;align=left;verticalAlign=middle;spacingLeft=4;spacingRight=4;overflow=hidden;points=[[0,0.5],[1,0.5]];portConstraint=eastwest;rotatable=0;" vertex="1" parent="HSVkpMsHJG1qh-er9L2Z-27">
          <mxGeometry y="30" width="140" height="30" as="geometry" />
        </mxCell>
        <mxCell id="HSVkpMsHJG1qh-er9L2Z-29" value="Item" style="text;strokeColor=none;fillColor=none;align=left;verticalAlign=middle;spacingLeft=4;spacingRight=4;overflow=hidden;points=[[0,0.5],[1,0.5]];portConstraint=eastwest;rotatable=0;" vertex="1" parent="HSVkpMsHJG1qh-er9L2Z-27">
          <mxGeometry y="60" width="140" height="30" as="geometry" />
        </mxCell>
        <mxCell id="HSVkpMsHJG1qh-er9L2Z-30" value="PropertyContainer" style="text;strokeColor=none;fillColor=none;align=left;verticalAlign=middle;spacingLeft=4;spacingRight=4;overflow=hidden;points=[[0,0.5],[1,0.5]];portConstraint=eastwest;rotatable=0;" vertex="1" parent="HSVkpMsHJG1qh-er9L2Z-27">
          <mxGeometry y="90" width="140" height="30" as="geometry" />
        </mxCell>
        <mxCell id="HSVkpMsHJG1qh-er9L2Z-71" style="edgeStyle=orthogonalEdgeStyle;rounded=0;orthogonalLoop=1;jettySize=auto;html=1;" edge="1" parent="1" source="HSVkpMsHJG1qh-er9L2Z-31" target="HSVkpMsHJG1qh-er9L2Z-1">
          <mxGeometry relative="1" as="geometry">
            <Array as="points">
              <mxPoint x="270" y="580" />
              <mxPoint x="270" y="350" />
            </Array>
          </mxGeometry>
        </mxCell>
        <mxCell id="HSVkpMsHJG1qh-er9L2Z-31" value="Ingredient" style="swimlane;fontStyle=0;childLayout=stackLayout;horizontal=1;startSize=30;horizontalStack=0;resizeParent=1;resizeParentMax=0;resizeLast=0;collapsible=1;marginBottom=0;" vertex="1" parent="1">
          <mxGeometry x="60" y="525" width="140" height="120" as="geometry" />
        </mxCell>
        <mxCell id="HSVkpMsHJG1qh-er9L2Z-32" value="Ingredient" style="text;strokeColor=none;fillColor=none;align=left;verticalAlign=middle;spacingLeft=4;spacingRight=4;overflow=hidden;points=[[0,0.5],[1,0.5]];portConstraint=eastwest;rotatable=0;" vertex="1" parent="HSVkpMsHJG1qh-er9L2Z-31">
          <mxGeometry y="30" width="140" height="30" as="geometry" />
        </mxCell>
        <mxCell id="HSVkpMsHJG1qh-er9L2Z-33" value="Item" style="text;strokeColor=none;fillColor=none;align=left;verticalAlign=middle;spacingLeft=4;spacingRight=4;overflow=hidden;points=[[0,0.5],[1,0.5]];portConstraint=eastwest;rotatable=0;" vertex="1" parent="HSVkpMsHJG1qh-er9L2Z-31">
          <mxGeometry y="60" width="140" height="30" as="geometry" />
        </mxCell>
        <mxCell id="HSVkpMsHJG1qh-er9L2Z-34" value="PropertyContainer" style="text;strokeColor=none;fillColor=none;align=left;verticalAlign=middle;spacingLeft=4;spacingRight=4;overflow=hidden;points=[[0,0.5],[1,0.5]];portConstraint=eastwest;rotatable=0;" vertex="1" parent="HSVkpMsHJG1qh-er9L2Z-31">
          <mxGeometry y="90" width="140" height="30" as="geometry" />
        </mxCell>
        <mxCell id="HSVkpMsHJG1qh-er9L2Z-64" style="edgeStyle=orthogonalEdgeStyle;rounded=0;orthogonalLoop=1;jettySize=auto;html=1;" edge="1" parent="1" source="HSVkpMsHJG1qh-er9L2Z-35" target="HSVkpMsHJG1qh-er9L2Z-27">
          <mxGeometry relative="1" as="geometry">
            <Array as="points">
              <mxPoint x="-80" y="520" />
              <mxPoint x="-80" y="460" />
            </Array>
          </mxGeometry>
        </mxCell>
        <mxCell id="HSVkpMsHJG1qh-er9L2Z-35" value="Trinket" style="swimlane;fontStyle=0;childLayout=stackLayout;horizontal=1;startSize=30;horizontalStack=0;resizeParent=1;resizeParentMax=0;resizeLast=0;collapsible=1;marginBottom=0;" vertex="1" parent="1">
          <mxGeometry x="-370" y="520" width="140" height="120" as="geometry" />
        </mxCell>
        <mxCell id="HSVkpMsHJG1qh-er9L2Z-36" value="Item" style="text;strokeColor=none;fillColor=none;align=left;verticalAlign=middle;spacingLeft=4;spacingRight=4;overflow=hidden;points=[[0,0.5],[1,0.5]];portConstraint=eastwest;rotatable=0;" vertex="1" parent="HSVkpMsHJG1qh-er9L2Z-35">
          <mxGeometry y="30" width="140" height="30" as="geometry" />
        </mxCell>
        <mxCell id="HSVkpMsHJG1qh-er9L2Z-37" value="PropertyContainer" style="text;strokeColor=none;fillColor=none;align=left;verticalAlign=middle;spacingLeft=4;spacingRight=4;overflow=hidden;points=[[0,0.5],[1,0.5]];portConstraint=eastwest;rotatable=0;" vertex="1" parent="HSVkpMsHJG1qh-er9L2Z-35">
          <mxGeometry y="60" width="140" height="30" as="geometry" />
        </mxCell>
        <mxCell id="HSVkpMsHJG1qh-er9L2Z-38" value="Ingredient" style="text;strokeColor=none;fillColor=none;align=left;verticalAlign=middle;spacingLeft=4;spacingRight=4;overflow=hidden;points=[[0,0.5],[1,0.5]];portConstraint=eastwest;rotatable=0;" vertex="1" parent="HSVkpMsHJG1qh-er9L2Z-35">
          <mxGeometry y="90" width="140" height="30" as="geometry" />
        </mxCell>
        <mxCell id="HSVkpMsHJG1qh-er9L2Z-68" style="edgeStyle=orthogonalEdgeStyle;rounded=0;orthogonalLoop=1;jettySize=auto;html=1;" edge="1" parent="1" source="HSVkpMsHJG1qh-er9L2Z-39" target="HSVkpMsHJG1qh-er9L2Z-35">
          <mxGeometry relative="1" as="geometry" />
        </mxCell>
        <mxCell id="HSVkpMsHJG1qh-er9L2Z-39" value="Gem" style="swimlane;fontStyle=0;childLayout=stackLayout;horizontal=1;startSize=30;horizontalStack=0;resizeParent=1;resizeParentMax=0;resizeLast=0;collapsible=1;marginBottom=0;" vertex="1" parent="1">
          <mxGeometry x="-700" y="480" width="140" height="120" as="geometry" />
        </mxCell>
        <mxCell id="HSVkpMsHJG1qh-er9L2Z-40" value="Item" style="text;strokeColor=none;fillColor=none;align=left;verticalAlign=middle;spacingLeft=4;spacingRight=4;overflow=hidden;points=[[0,0.5],[1,0.5]];portConstraint=eastwest;rotatable=0;" vertex="1" parent="HSVkpMsHJG1qh-er9L2Z-39">
          <mxGeometry y="30" width="140" height="30" as="geometry" />
        </mxCell>
        <mxCell id="HSVkpMsHJG1qh-er9L2Z-41" value="PropertyContainer" style="text;strokeColor=none;fillColor=none;align=left;verticalAlign=middle;spacingLeft=4;spacingRight=4;overflow=hidden;points=[[0,0.5],[1,0.5]];portConstraint=eastwest;rotatable=0;" vertex="1" parent="HSVkpMsHJG1qh-er9L2Z-39">
          <mxGeometry y="60" width="140" height="30" as="geometry" />
        </mxCell>
        <mxCell id="HSVkpMsHJG1qh-er9L2Z-42" value="Ingredient" style="text;strokeColor=none;fillColor=none;align=left;verticalAlign=middle;spacingLeft=4;spacingRight=4;overflow=hidden;points=[[0,0.5],[1,0.5]];portConstraint=eastwest;rotatable=0;" vertex="1" parent="HSVkpMsHJG1qh-er9L2Z-39">
          <mxGeometry y="90" width="140" height="30" as="geometry" />
        </mxCell>
        <mxCell id="HSVkpMsHJG1qh-er9L2Z-43" value="Weapon" style="swimlane;fontStyle=0;childLayout=stackLayout;horizontal=1;startSize=30;horizontalStack=0;resizeParent=1;resizeParentMax=0;resizeLast=0;collapsible=1;marginBottom=0;" vertex="1" parent="1">
          <mxGeometry x="-370" y="-225" width="140" height="120" as="geometry" />
        </mxCell>
        <mxCell id="HSVkpMsHJG1qh-er9L2Z-44" value="Ingredient" style="text;strokeColor=none;fillColor=none;align=left;verticalAlign=middle;spacingLeft=4;spacingRight=4;overflow=hidden;points=[[0,0.5],[1,0.5]];portConstraint=eastwest;rotatable=0;" vertex="1" parent="HSVkpMsHJG1qh-er9L2Z-43">
          <mxGeometry y="30" width="140" height="30" as="geometry" />
        </mxCell>
        <mxCell id="HSVkpMsHJG1qh-er9L2Z-45" value="Item" style="text;strokeColor=none;fillColor=none;align=left;verticalAlign=middle;spacingLeft=4;spacingRight=4;overflow=hidden;points=[[0,0.5],[1,0.5]];portConstraint=eastwest;rotatable=0;" vertex="1" parent="HSVkpMsHJG1qh-er9L2Z-43">
          <mxGeometry y="60" width="140" height="30" as="geometry" />
        </mxCell>
        <mxCell id="HSVkpMsHJG1qh-er9L2Z-46" value="PropertyContainer" style="text;strokeColor=none;fillColor=none;align=left;verticalAlign=middle;spacingLeft=4;spacingRight=4;overflow=hidden;points=[[0,0.5],[1,0.5]];portConstraint=eastwest;rotatable=0;" vertex="1" parent="HSVkpMsHJG1qh-er9L2Z-43">
          <mxGeometry y="90" width="140" height="30" as="geometry" />
        </mxCell>
        <mxCell id="HSVkpMsHJG1qh-er9L2Z-47" value="Tool" style="swimlane;fontStyle=0;childLayout=stackLayout;horizontal=1;startSize=30;horizontalStack=0;resizeParent=1;resizeParentMax=0;resizeLast=0;collapsible=1;marginBottom=0;" vertex="1" parent="1">
          <mxGeometry x="-370" y="-85" width="140" height="120" as="geometry" />
        </mxCell>
        <mxCell id="HSVkpMsHJG1qh-er9L2Z-48" value="Ingredient" style="text;strokeColor=none;fillColor=none;align=left;verticalAlign=middle;spacingLeft=4;spacingRight=4;overflow=hidden;points=[[0,0.5],[1,0.5]];portConstraint=eastwest;rotatable=0;" vertex="1" parent="HSVkpMsHJG1qh-er9L2Z-47">
          <mxGeometry y="30" width="140" height="30" as="geometry" />
        </mxCell>
        <mxCell id="HSVkpMsHJG1qh-er9L2Z-49" value="Item" style="text;strokeColor=none;fillColor=none;align=left;verticalAlign=middle;spacingLeft=4;spacingRight=4;overflow=hidden;points=[[0,0.5],[1,0.5]];portConstraint=eastwest;rotatable=0;" vertex="1" parent="HSVkpMsHJG1qh-er9L2Z-47">
          <mxGeometry y="60" width="140" height="30" as="geometry" />
        </mxCell>
        <mxCell id="HSVkpMsHJG1qh-er9L2Z-50" value="PropertyContainer" style="text;strokeColor=none;fillColor=none;align=left;verticalAlign=middle;spacingLeft=4;spacingRight=4;overflow=hidden;points=[[0,0.5],[1,0.5]];portConstraint=eastwest;rotatable=0;" vertex="1" parent="HSVkpMsHJG1qh-er9L2Z-47">
          <mxGeometry y="90" width="140" height="30" as="geometry" />
        </mxCell>
        <mxCell id="HSVkpMsHJG1qh-er9L2Z-60" style="edgeStyle=orthogonalEdgeStyle;rounded=0;orthogonalLoop=1;jettySize=auto;html=1;" edge="1" parent="1" source="HSVkpMsHJG1qh-er9L2Z-51" target="HSVkpMsHJG1qh-er9L2Z-18">
          <mxGeometry relative="1" as="geometry">
            <Array as="points">
              <mxPoint x="-120" y="125" />
              <mxPoint x="-120" y="270" />
            </Array>
          </mxGeometry>
        </mxCell>
        <mxCell id="HSVkpMsHJG1qh-er9L2Z-51" value="Wearable" style="swimlane;fontStyle=0;childLayout=stackLayout;horizontal=1;startSize=30;horizontalStack=0;resizeParent=1;resizeParentMax=0;resizeLast=0;collapsible=1;marginBottom=0;" vertex="1" parent="1">
          <mxGeometry x="-370" y="65" width="140" height="120" as="geometry" />
        </mxCell>
        <mxCell id="HSVkpMsHJG1qh-er9L2Z-52" value="Ingredient" style="text;strokeColor=none;fillColor=none;align=left;verticalAlign=middle;spacingLeft=4;spacingRight=4;overflow=hidden;points=[[0,0.5],[1,0.5]];portConstraint=eastwest;rotatable=0;" vertex="1" parent="HSVkpMsHJG1qh-er9L2Z-51">
          <mxGeometry y="30" width="140" height="30" as="geometry" />
        </mxCell>
        <mxCell id="HSVkpMsHJG1qh-er9L2Z-53" value="Item" style="text;strokeColor=none;fillColor=none;align=left;verticalAlign=middle;spacingLeft=4;spacingRight=4;overflow=hidden;points=[[0,0.5],[1,0.5]];portConstraint=eastwest;rotatable=0;" vertex="1" parent="HSVkpMsHJG1qh-er9L2Z-51">
          <mxGeometry y="60" width="140" height="30" as="geometry" />
        </mxCell>
        <mxCell id="HSVkpMsHJG1qh-er9L2Z-54" value="PropertyContainer" style="text;strokeColor=none;fillColor=none;align=left;verticalAlign=middle;spacingLeft=4;spacingRight=4;overflow=hidden;points=[[0,0.5],[1,0.5]];portConstraint=eastwest;rotatable=0;" vertex="1" parent="HSVkpMsHJG1qh-er9L2Z-51">
          <mxGeometry y="90" width="140" height="30" as="geometry" />
        </mxCell>
        <mxCell id="HSVkpMsHJG1qh-er9L2Z-61" style="edgeStyle=orthogonalEdgeStyle;rounded=0;orthogonalLoop=1;jettySize=auto;html=1;" edge="1" parent="1" source="HSVkpMsHJG1qh-er9L2Z-55" target="HSVkpMsHJG1qh-er9L2Z-18">
          <mxGeometry relative="1" as="geometry" />
        </mxCell>
        <mxCell id="HSVkpMsHJG1qh-er9L2Z-55" value="Armour" style="swimlane;fontStyle=0;childLayout=stackLayout;horizontal=1;startSize=30;horizontalStack=0;resizeParent=1;resizeParentMax=0;resizeLast=0;collapsible=1;marginBottom=0;" vertex="1" parent="1">
          <mxGeometry x="-370" y="210" width="140" height="120" as="geometry" />
        </mxCell>
        <mxCell id="HSVkpMsHJG1qh-er9L2Z-56" value="Ingredient" style="text;strokeColor=none;fillColor=none;align=left;verticalAlign=middle;spacingLeft=4;spacingRight=4;overflow=hidden;points=[[0,0.5],[1,0.5]];portConstraint=eastwest;rotatable=0;" vertex="1" parent="HSVkpMsHJG1qh-er9L2Z-55">
          <mxGeometry y="30" width="140" height="30" as="geometry" />
        </mxCell>
        <mxCell id="HSVkpMsHJG1qh-er9L2Z-57" value="Item" style="text;strokeColor=none;fillColor=none;align=left;verticalAlign=middle;spacingLeft=4;spacingRight=4;overflow=hidden;points=[[0,0.5],[1,0.5]];portConstraint=eastwest;rotatable=0;" vertex="1" parent="HSVkpMsHJG1qh-er9L2Z-55">
          <mxGeometry y="60" width="140" height="30" as="geometry" />
        </mxCell>
        <mxCell id="HSVkpMsHJG1qh-er9L2Z-58" value="PropertyContainer" style="text;strokeColor=none;fillColor=none;align=left;verticalAlign=middle;spacingLeft=4;spacingRight=4;overflow=hidden;points=[[0,0.5],[1,0.5]];portConstraint=eastwest;rotatable=0;" vertex="1" parent="HSVkpMsHJG1qh-er9L2Z-55">
          <mxGeometry y="90" width="140" height="30" as="geometry" />
        </mxCell>
        <mxCell id="HSVkpMsHJG1qh-er9L2Z-59" value="Core types" style="text;html=1;strokeColor=none;fillColor=none;align=center;verticalAlign=middle;whiteSpace=wrap;rounded=0;" vertex="1" parent="1">
          <mxGeometry x="100" y="140" width="60" height="30" as="geometry" />
        </mxCell>
        <mxCell id="HSVkpMsHJG1qh-er9L2Z-65" style="edgeStyle=orthogonalEdgeStyle;rounded=0;orthogonalLoop=1;jettySize=auto;html=1;" edge="1" parent="1" source="HSVkpMsHJG1qh-er9L2Z-37" target="HSVkpMsHJG1qh-er9L2Z-31">
          <mxGeometry relative="1" as="geometry">
            <Array as="points">
              <mxPoint x="-230" y="550" />
            </Array>
          </mxGeometry>
        </mxCell>
        <mxCell id="HSVkpMsHJG1qh-er9L2Z-72" value="Adapter" style="swimlane;fontStyle=0;childLayout=stackLayout;horizontal=1;startSize=30;horizontalStack=0;resizeParent=1;resizeParentMax=0;resizeLast=0;collapsible=1;marginBottom=0;" vertex="1" parent="1">
          <mxGeometry x="150" y="-280" width="140" height="120" as="geometry" />
        </mxCell>
        <mxCell id="HSVkpMsHJG1qh-er9L2Z-73" value="Ingredient" style="text;strokeColor=none;fillColor=none;align=left;verticalAlign=middle;spacingLeft=4;spacingRight=4;overflow=hidden;points=[[0,0.5],[1,0.5]];portConstraint=eastwest;rotatable=0;" vertex="1" parent="HSVkpMsHJG1qh-er9L2Z-72">
          <mxGeometry y="30" width="140" height="30" as="geometry" />
        </mxCell>
        <mxCell id="HSVkpMsHJG1qh-er9L2Z-74" value="Item" style="text;strokeColor=none;fillColor=none;align=left;verticalAlign=middle;spacingLeft=4;spacingRight=4;overflow=hidden;points=[[0,0.5],[1,0.5]];portConstraint=eastwest;rotatable=0;" vertex="1" parent="HSVkpMsHJG1qh-er9L2Z-72">
          <mxGeometry y="60" width="140" height="30" as="geometry" />
        </mxCell>
        <mxCell id="HSVkpMsHJG1qh-er9L2Z-75" value="PropertyContainer" style="text;strokeColor=none;fillColor=none;align=left;verticalAlign=middle;spacingLeft=4;spacingRight=4;overflow=hidden;points=[[0,0.5],[1,0.5]];portConstraint=eastwest;rotatable=0;" vertex="1" parent="HSVkpMsHJG1qh-er9L2Z-72">
          <mxGeometry y="90" width="140" height="30" as="geometry" />
        </mxCell>
      </root>
    </mxGraphModel>
  </diagram>
</mxfile>
